<svg xmlns="http://www.w3.org/2000/svg" version="1.1" xmlnsXlink="http://www.w3.org/1999/xlink" xmlnsSvgjs="http://svgjs.dev/svgjs" width="1500" height="617" viewBox="0 0 1500 617"><g transform="matrix(1,0,0,1,-0.9090909090909918,-0.8074580912363558)"><svg viewBox="0 0 396 163" data-background-color="#dedede" preserveAspectRatio="xMidYMid meet" height="617" width="1500" xmlns="http://www.w3.org/2000/svg" xmlnsXlink="http://www.w3.org/1999/xlink"><g id="tight-bounds" transform="matrix(1,0,0,1,0.2400000000000091,0.21331550870587535)"><svg viewBox="0 0 395.52 162.57336898258825" height="162.57336898258825" width="395.52"><g><svg viewBox="0 0 397.4975999999999 163.38623582750117" height="162.57336898258825" width="395.52"><g><rect width="397.4975999999999" height="5.004304608677647" x="0" y="89.7898926682353" fill="#61777f" opacity="1" stroke-width="0" stroke="transparent" fill-opacity="1" class="rect-qz-0" data-fill-palette-color="secondary" rx="1%" id="qz-0" data-palette-color="#61777f"></rect></g><g transform="matrix(1,0,0,1,0.9887999999999693,107.89447112161882)"><svg viewBox="0 0 395.52 55.491764705882346" height="55.491764705882346" width="395.52"><g id="textblocktransform"><svg viewBox="0 0 395.52 55.491764705882346" height="55.491764705882346" width="395.52" id="textblock"><g><svg viewBox="0 0 395.52 55.491764705882346" height="55.491764705882346" width="395.52"><g transform="matrix(1,0,0,1,0,0)"><svg width="395.52" viewBox="2.25 -36.25 262.63 36.85" height="55.491764705882346" data-palette-color="#000000"><path d="M21-35Q25.95-35 29.9-33.5 33.85-32 36.18-29.08 38.5-26.15 38.5-21.95L38.5-21.95 27.95-21.95Q27.95-24.1 26.05-25.43 24.15-26.75 21.45-26.75L21.45-26.75Q17.55-26.75 15.55-24.68 13.55-22.6 13.55-18.8L13.55-18.8 13.55-15.6Q13.55-11.8 15.55-9.73 17.55-7.65 21.45-7.65L21.45-7.65Q24.15-7.65 26.05-8.93 27.95-10.2 27.95-12.2L27.95-12.2 20.15-12.2 20.15-19.2 38.5-19.2 38.5 0 32.8 0 31.7-3.4Q27 0.6 19.4 0.6L19.4 0.6Q10.85 0.6 6.55-3.88 2.25-8.35 2.25-17.2L2.25-17.2Q2.25-25.95 7.13-30.48 12-35 21-35L21-35ZM57.7-27Q63.75-27 67.55-24.98 71.35-22.95 71.35-18.4L71.35-18.4 71.35-8.1Q71.35-7.25 71.75-6.7 72.15-6.15 72.95-6.15L72.95-6.15 74.75-6.15 74.75-0.4Q74.6-0.3 73.97-0.08 73.35 0.15 72.2 0.38 71.05 0.6 69.55 0.6L69.55 0.6Q66.65 0.6 64.77-0.28 62.9-1.15 62.2-2.7L62.2-2.7Q60.3-1.2 57.95-0.3 55.6 0.6 52.45 0.6L52.45 0.6Q43.15 0.6 43.15-6.8L43.15-6.8Q43.15-10.65 45.22-12.68 47.3-14.7 51.2-15.45 55.1-16.2 61.4-16.2L61.4-16.2 61.4-17.5Q61.4-19.05 60.32-19.85 59.25-20.65 57.55-20.65L57.55-20.65Q56-20.65 54.87-20.1 53.75-19.55 53.75-18.35L53.75-18.35 53.75-18.15 43.95-18.15Q43.9-18.4 43.9-18.85L43.9-18.85Q43.9-22.6 47.47-24.8 51.05-27 57.7-27L57.7-27ZM61.4-11.5Q57.15-11.5 55.12-10.58 53.1-9.65 53.1-8.1L53.1-8.1Q53.1-5.6 56.5-5.6L56.5-5.6Q58.45-5.6 59.92-6.65 61.4-7.7 61.4-9.25L61.4-9.25 61.4-11.5ZM113.05-27Q117.55-27 119.8-24.43 122.05-21.85 122.05-17.1L122.05-17.1 122.05 0 112.09 0 112.09-15.9Q112.09-17.6 111.27-18.63 110.45-19.65 108.95-19.65L108.95-19.65Q107.2-19.65 106.09-18.45 105-17.25 105-15.5L105-15.5 105 0 95.05 0 95.05-15.9Q95.05-17.6 94.22-18.63 93.4-19.65 91.9-19.65L91.9-19.65Q90.15-19.65 89.05-18.45 87.95-17.25 87.95-15.5L87.95-15.5 87.95 0 78 0 78-26.4 86.15-26.4 86.8-22.45Q88.3-24.55 90.77-25.78 93.25-27 96-27L96-27Q101.95-27 104-22.45L104-22.45Q105.55-24.55 107.97-25.78 110.4-27 113.05-27L113.05-27ZM141.64-27Q148.89-27 152.72-23.6 156.54-20.2 156.54-13.2L156.54-13.2 156.54-11.5 136.74-11.5Q136.74-8.65 138.02-7.2 139.29-5.75 142.04-5.75L142.04-5.75Q144.54-5.75 145.72-6.8 146.89-7.85 146.89-9.6L146.89-9.6 156.54-9.6Q156.54-4.8 152.89-2.1 149.24 0.6 142.24 0.6L142.24 0.6Q134.89 0.6 130.84-2.83 126.79-6.25 126.79-13.2L126.79-13.2Q126.79-20 130.74-23.5 134.69-27 141.64-27L141.64-27ZM142.04-20.65Q137.34-20.65 136.79-16.2L136.79-16.2 146.49-16.2Q146.49-18.25 145.32-19.45 144.14-20.65 142.04-20.65L142.04-20.65ZM196.29 0L185.24 0 185.24-13.05 173.09-13.05 173.09 0 162.04 0 162.04-34.4 173.09-34.4 173.09-21.85 185.24-21.85 185.24-34.4 196.29-34.4 196.29 0ZM230.29 0L222.14 0 221.49-4Q219.94-1.85 217.41-0.63 214.89 0.6 212.09 0.6L212.09 0.6Q207.49 0.6 205.19-1.95 202.89-4.5 202.89-9.3L202.89-9.3 202.89-26.4 212.84-26.4 212.84-10.5Q212.84-8.8 213.71-7.78 214.59-6.75 216.19-6.75L216.19-6.75Q218.04-6.75 219.19-7.95 220.34-9.15 220.34-10.9L220.34-10.9 220.34-26.4 230.29-26.4 230.29 0ZM246.34-23.95Q249.19-27 253.74-27L253.74-27Q259.09-27 261.99-23.53 264.88-20.05 264.88-13.25L264.88-13.25Q264.88-6.4 261.99-2.9 259.09 0.6 253.74 0.6L253.74 0.6Q248.24 0.6 245.34-3.75L245.34-3.75 244.49 0 236.39 0 236.39-36.25 246.34-36.25 246.34-23.95ZM250.64-19.65Q248.44-19.65 247.34-18.07 246.24-16.5 246.24-14L246.24-14 246.24-12.35Q246.24-9.85 247.34-8.3 248.44-6.75 250.64-6.75L250.64-6.75Q254.94-6.75 254.94-11.85L254.94-11.85 254.94-14.5Q254.94-19.65 250.64-19.65L250.64-19.65Z" opacity="1" transform="matrix(1,0,0,1,0,0)" fill="#000000" class="wordmark-text-0" data-fill-palette-color="primary" id="text-0"></path></svg></g></svg></g></svg></g></svg></g><g transform="matrix(1,0,0,1,149.06965933503832,0)"><svg viewBox="0 0 99.35828132992327 76.68961882352941" height="76.68961882352941" width="99.35828132992327"><g><svg xmlnsX="http://ns.adobe.com/Extensibility/1.0/" xmlnsI="http://ns.adobe.com/AdobeIllustrator/10.0/" xmlnsGraph="http://ns.adobe.com/Graphs/1.0/" xmlns="http://www.w3.org/2000/svg" xmlnsXlink="http://www.w3.org/1999/xlink" version="1.1" x="8" y="0" viewBox="7 9 50 46" enable-background="new 0 0 64 64" xmlSpace="preserve" height="76.68961882352941" width="83.35828132992327" class="icon-icon-0" data-fill-palette-color="accent" id="icon-0"><g fill="#61777f" data-fill-palette-color="accent"><path d="M46 25H33v-9c0-2.757 2.243-5 5-5s5 2.243 5 5 2.243 5 5 5 5-2.243 5-5c0-0.552-0.447-1-1-1s-1 0.448-1 1c0 1.654-1.346 3-3 3s-3-1.346-3-3c0-3.86-3.141-7-7-7s-7 3.14-7 7v9H18c-6.065 0-11 4.935-11 11 0 12.607 2.355 19 7 19 6.692 0 8.101-4.253 9.464-8.366 0.397-1.199 0.807-2.435 1.35-3.634h14.373c0.543 1.199 0.952 2.435 1.35 3.634C41.898 50.747 43.308 55 50 55c4.645 0 7-6.393 7-19C57 29.935 52.065 25 46 25zM22 37h-3v3c0 0.553-0.448 1-1 1s-1-0.447-1-1v-3h-3c-0.552 0-1-0.447-1-1s0.448-1 1-1h3v-3c0-0.552 0.448-1 1-1s1 0.448 1 1v3h3c0.552 0 1 0.447 1 1S22.552 37 22 37zM30 39h-4c-0.552 0-1-0.447-1-1s0.448-1 1-1h4c0.552 0 1 0.447 1 1S30.552 39 30 39zM38 39h-4c-0.553 0-1-0.447-1-1s0.447-1 1-1h4c0.553 0 1 0.447 1 1S38.553 39 38 39zM46 30c1.104 0 2 0.896 2 2s-0.896 2-2 2-2-0.896-2-2S44.896 30 46 30zM42 38c-1.104 0-2-0.896-2-2s0.896-2 2-2 2 0.896 2 2S43.104 38 42 38zM46 42c-1.104 0-2-0.896-2-2s0.896-2 2-2 2 0.896 2 2S47.104 42 46 42zM50 38c-1.104 0-2-0.896-2-2s0.896-2 2-2 2 0.896 2 2S51.104 38 50 38z" fill="#61777f" data-fill-palette-color="accent"></path></g></svg><g></g></g></svg></g><g><rect width="72.53653933503836" height="5.004304608677647" y="70.68531421485177" x="248.4279406649616" fill="#61777f" data-fill-palette-color="secondary"></rect><rect width="72.53653933503836" height="5.004304608677647" y="70.68531421485177" x="76.53311999999997" fill="#61777f" data-fill-palette-color="secondary"></rect></g></svg></g><defs></defs></svg><rect width="395.52" height="162.57336898258825" fill="none" stroke="none" visibility="hidden"></rect></g></svg></g></svg>